<?xml version="1.0" encoding="utf-8"?>
<!-- Generator: Adobe Illustrator 25.0.1, SVG Export Plug-In . SVG Version: 6.00 Build 0)  -->
<svg version="1.1" id="Layer_1" xmlns="http://www.w3.org/2000/svg" xmlns:xlink="http://www.w3.org/1999/xlink" x="0px" y="0px"
	 viewBox="0 0 652 420" style="enable-background:new 0 0 652 420;" xml:space="preserve">
<style type="text/css">
	.st0{fill:#22C4D6;}
	.st1{fill:#0B345A;}
</style>
<path class="st0" d="M506.03,109.85v45.22c0,11.26-9.13,20.39-20.39,20.39h-45.22c-11.26,0-20.39-9.13-20.39-20.39v-45.22
	c0-11.26,9.13-20.39,20.39-20.39h45.22C496.9,89.46,506.03,98.59,506.03,109.85z"/>
<g>
	<path class="st1" d="M169.18,359.89c-8.71,5.64-18.43,9.85-28.83,12.3c0.7-0.34,1.37-0.7,2.03-1.1c7.25-4.37,12.1-12.32,12.1-21.41
		c0-4.39-1.13-8.53-3.14-12.12c-0.05-0.09-0.1-0.17-0.15-0.26c0.68,1,1.37,1.99,2.06,2.98c0.58,0.82,1.17,1.64,1.77,2.45
		c3.41,4.66,7.02,9.15,10.83,13.47C166.94,357.44,168.05,358.67,169.18,359.89z"/>
</g>
<g>
	<path class="st1" d="M119.16,252.95c-0.01,0.73-0.03,1.44-0.05,2.14c-2.95-9.2-11.27-15.98-21.27-16.62
		c-0.53-0.04-1.06-0.06-1.59-0.06c-0.16,0-0.47,0.01-0.47,0.01c-0.02-0.02-0.04-0.05-0.04-0.08c-0.09-0.52,3.28-1.63,10.09-3.32
		c1.64-0.02,3.31-0.02,5,0c2.38,0.02,4.72,0.08,7,0.16h0.15v1c0.43,2.75,0.79,5.76,1,9C119.16,247.93,119.2,250.53,119.16,252.95z"
		/>
</g>
<g>
	<path class="st1" d="M185.24,310.34c-1.18,17.95-9.12,34.06-21.31,45.79c-0.03,0.03-0.05,0.05-0.08,0.07
		c-6.69,6.42-14.65,11.52-23.47,14.89c-7.76,2.97-16.19,4.6-24.99,4.6c-38.66,0-70-31.34-70-70c0-31.87,21.3-58.77,50.45-67.22
		c6.2-1.81,12.76-2.78,19.55-2.78c0.15,0,0.31,0,0.46,0.01c0.04-0.01,0.09-0.01,0.13,0c18.07,0.14,34.5,7.14,46.84,18.5
		c-1.36-7.97-2.07-16.16-2.07-24.51c0-9.74,0.96-19.26,2.79-28.46c-13.41-6.2-28.2-9.88-43.8-10.45c-1.44-0.06-2.89-0.09-4.35-0.09
		c-63.51,0-115,51.49-115,115s51.49,115,115,115h0.36c32.13-0.1,61.15-13.37,81.96-34.7c3.12-3.19,6.05-6.56,8.77-10.1
		c6.47-8.37,11.8-17.66,15.77-27.64C207.71,337.99,195.15,325.13,185.24,310.34z"/>
</g>
<g>
	<path class="st1" d="M491.76,190.03c-6.54,0.68-13.91,1.82-21.87,3.68c-7.89,1.84-14.94,4.05-21.06,6.31
		c-0.5-2.12-1.04-4.27-1.61-6.45c-0.31-1.19-0.63-2.37-0.96-3.54H491.76z"/>
</g>
<g>
	<path class="st1" d="M446.49,358.42c-5.73,6.22-11.88,12.06-18.39,17.47H185.4c-7.3-6.07-14.15-12.67-20.47-19.76
		c-3.83-4.29-7.47-8.77-10.91-13.4c-0.6-0.81-1.19-1.63-1.77-2.45c-0.66-0.9-1.29-1.8-1.91-2.72
		c-17.03-24.62-28.37-53.45-32.18-84.61c-0.69-5.67-1.14-11.43-1.31-17.25c-0.01-0.17-0.02-0.34-0.02-0.52
		c-0.05-1.82-0.08-3.65-0.08-5.49c0-13.34,1.37-26.35,3.99-38.91c17.95-86.28,94.42-151.09,186.01-151.09
		c42.38,0,81.52,13.87,113.12,37.33c-8.19,2.64-14.11,10.33-14.11,19.4v27.35c-25.92-24.25-60.73-39.08-99.01-39.08
		c-70.34,0-128.98,50.08-142.21,116.54c-1.83,9.2-2.79,18.72-2.79,28.46c0,8.35,0.71,16.54,2.07,24.51
		c3.48,20.5,11.28,39.53,22.42,56.14c9.91,14.79,22.47,27.65,37.01,37.91c23.61,16.66,52.41,26.44,83.5,26.44
		c2.75,0,5.49-0.08,8.2-0.23h86.06c-5.64-7.32-10.4-15.34-14.14-23.91c13.8-9.16,25.94-20.61,35.87-33.83
		C425.53,333.34,434.18,347.97,446.49,358.42z"/>
</g>
<g>
	<path class="st1" d="M492.6,190.04c-0.28-0.01-0.56-0.01-0.84-0.01c-15.35,0-29.99,3.01-43.37,8.47c-0.04,0.01-0.08,0.02-0.12,0.05
		c2.07,9.75,3.15,19.87,3.15,30.23c0,1.5-0.02,3-0.07,4.49l0.32,1.18c1.37,4.21,5.32,7.24,9.98,7.24c0.1,0,0.19,0,0.29-0.01
		c9.05-4.26,19.15-6.65,29.82-6.65c1.65,0,3.29,0.06,4.91,0.17c36.37,2.52,65.09,32.82,65.09,69.83c0,38.66-31.34,70-70,70
		c-17.26,0-33.07-6.25-45.27-16.61c-12.31-10.45-20.96-25.08-23.75-41.7c-0.65-3.8-0.98-7.71-0.98-11.69c0-1.58,0.05-3.15,0.16-4.7
		c-3.37-8.83-11.93-15.1-21.94-15.1c-11.15,0-20.48,7.77-22.89,18.18c-0.13,0.56-0.24,1.13-0.33,1.71
		c0.01,16.29,3.41,31.79,9.54,45.82c3.66,8.41,8.3,16.3,13.78,23.52c0.36,0.48,0.73,0.96,1.1,1.43
		c21.05,26.87,53.8,44.14,90.58,44.14c63.51,0,115-51.49,115-115C606.76,241.8,555.72,190.49,492.6,190.04z"/>
</g>
<rect x="111.03" y="375.46" class="st1" width="380" height="45"/>
<g>
	<circle class="st0" cx="303.83" cy="236.02" r="70"/>
</g>
<path class="st0" d="M526.91,76h-39.83C478.75,76,472,69.25,472,60.91V21.09C472,12.75,478.75,6,487.09,6h39.83
	C535.25,6,542,12.75,542,21.09v39.83C542,69.25,535.25,76,526.91,76z"/>
<path class="st0" d="M595.79,50h-29.57C560.57,50,556,45.43,556,39.79V10.21C556,4.57,560.57,0,566.21,0h29.57
	C601.43,0,606,4.57,606,10.21v29.57C606,45.43,601.43,50,595.79,50z"/>
<path class="st0" d="M610.79,161h-29.57c-5.64,0-10.21-4.57-10.21-10.21v-29.57c0-5.64,4.57-10.21,10.21-10.21h29.57
	c5.64,0,10.21,4.57,10.21,10.21v29.57C621,156.43,616.43,161,610.79,161z"/>
<path class="st0" d="M636.85,77h-13.7c-4.5,0-8.15-3.65-8.15-8.15v-13.7c0-4.5,3.65-8.15,8.15-8.15h13.7c4.5,0,8.15,3.65,8.15,8.15
	v13.7C645,73.35,641.35,77,636.85,77z"/>
<path class="st0" d="M551.85,131h-23.7c-4.5,0-8.15-3.65-8.15-8.15v-23.7c0-4.5,3.65-8.15,8.15-8.15h23.7c4.5,0,8.15,3.65,8.15,8.15
	v23.7C560,127.35,556.35,131,551.85,131z"/>
<path class="st0" d="M535,166h-10c-2.76,0-5-2.24-5-5v-10c0-2.76,2.24-5,5-5h10c2.76,0,5,2.24,5,5v10C540,163.76,537.76,166,535,166
	z"/>
<path class="st0" d="M580,82h-10c-2.76,0-5-2.24-5-5V67c0-2.76,2.24-5,5-5h10c2.76,0,5,2.24,5,5v10C585,79.76,582.76,82,580,82z"/>
<path class="st0" d="M647,170h-10c-2.76,0-5-2.24-5-5v-10c0-2.76,2.24-5,5-5h10c2.76,0,5,2.24,5,5v10C652,167.76,649.76,170,647,170
	z"/>
</svg>
